<mxfile host="drawio-plugin" modified="2024-01-11T16:09:05.185Z" agent="5.0 (Windows NT 6.2; Win64; x64) AppleWebKit/537.36 (KHTML, like Gecko) Chrome/104.0.5112.102 Safari/537.36" etag="ontlhgiCpWa3yIcqCr7r" version="20.5.3" type="embed"><diagram id="JJh7aprKmsuDzgFmWm8n" name="Page-1"><mxGraphModel dx="649" dy="563" grid="1" gridSize="10" guides="1" tooltips="1" connect="1" arrows="1" fold="1" page="1" pageScale="1" pageWidth="850" pageHeight="1100" math="0" shadow="0"><root><mxCell id="0"/><mxCell id="1" parent="0"/><mxCell id="10" value="«interface»&lt;br&gt;&lt;b&gt;FoodOder&lt;/b&gt;" style="html=1;fillColor=#60a917;fontColor=#ffffff;strokeColor=#2D7600;" parent="1" vertex="1"><mxGeometry x="205" y="40" width="135" height="30" as="geometry"/></mxCell><mxCell id="140" value="FoodOrderProxy" style="swimlane;fontStyle=1;align=center;verticalAlign=top;childLayout=stackLayout;horizontal=1;startSize=26;horizontalStack=0;resizeParent=1;resizeParentMax=0;resizeLast=0;collapsible=1;marginBottom=0;fillColor=#1ba1e2;fontColor=#ffffff;strokeColor=#006EAF;" parent="1" vertex="1"><mxGeometry x="50" y="200" width="180" height="74" as="geometry"/></mxCell><mxCell id="141" value="+ field: food item              String" style="text;strokeColor=#432D57;fillColor=#76608a;align=left;verticalAlign=top;spacingLeft=4;spacingRight=4;overflow=hidden;rotatable=0;points=[[0,0.5],[1,0.5]];portConstraint=eastwest;fontColor=#ffffff;" parent="140" vertex="1"><mxGeometry y="26" width="180" height="22" as="geometry"/></mxCell><mxCell id="143" value="+ method: deliver()           void" style="text;strokeColor=#C73500;fillColor=#fa6800;align=left;verticalAlign=top;spacingLeft=4;spacingRight=4;overflow=hidden;rotatable=0;points=[[0,0.5],[1,0.5]];portConstraint=eastwest;fontColor=#000000;" parent="140" vertex="1"><mxGeometry y="48" width="180" height="26" as="geometry"/></mxCell><mxCell id="145" value="RealFoodOrder" style="swimlane;fontStyle=1;align=center;verticalAlign=top;childLayout=stackLayout;horizontal=1;startSize=26;horizontalStack=0;resizeParent=1;resizeParentMax=0;resizeLast=0;collapsible=1;marginBottom=0;fillColor=#1ba1e2;fontColor=#ffffff;strokeColor=#006EAF;" parent="1" vertex="1"><mxGeometry x="310" y="200" width="160" height="78" as="geometry"/></mxCell><mxCell id="146" value="+ field: food item        String" style="text;strokeColor=#432D57;fillColor=#76608a;align=left;verticalAlign=top;spacingLeft=4;spacingRight=4;overflow=hidden;rotatable=0;points=[[0,0.5],[1,0.5]];portConstraint=eastwest;fontColor=#ffffff;" parent="145" vertex="1"><mxGeometry y="26" width="160" height="26" as="geometry"/></mxCell><mxCell id="149" value="+ method: deliver()       void" style="text;strokeColor=#C73500;fillColor=#fa6800;align=left;verticalAlign=top;spacingLeft=4;spacingRight=4;overflow=hidden;rotatable=0;points=[[0,0.5],[1,0.5]];portConstraint=eastwest;fontColor=#000000;" parent="145" vertex="1"><mxGeometry y="52" width="160" height="26" as="geometry"/></mxCell><mxCell id="150" value="" style="endArrow=block;dashed=1;endFill=0;endSize=12;html=1;rounded=0;exitX=0.414;exitY=-0.039;exitDx=0;exitDy=0;exitPerimeter=0;entryX=0.5;entryY=1;entryDx=0;entryDy=0;" parent="1" source="145" target="162" edge="1"><mxGeometry width="160" relative="1" as="geometry"><mxPoint x="210" y="30" as="sourcePoint"/><mxPoint x="300" y="90" as="targetPoint"/></mxGeometry></mxCell><mxCell id="161" value="" style="endArrow=block;dashed=1;endFill=0;endSize=12;html=1;rounded=0;entryX=0.5;entryY=1;entryDx=0;entryDy=0;exitX=0.444;exitY=0;exitDx=0;exitDy=0;exitPerimeter=0;" parent="1" source="140" target="162" edge="1"><mxGeometry width="160" relative="1" as="geometry"><mxPoint x="120" y="138.20000000000005" as="sourcePoint"/><mxPoint x="279.5" y="90" as="targetPoint"/><Array as="points"/></mxGeometry></mxCell><mxCell id="162" value="&lt;p style=&quot;margin: 4px 0px 0px;&quot;&gt;+ method:deliver()&lt;br&gt;&lt;br&gt;&lt;/p&gt;" style="verticalAlign=top;align=left;overflow=fill;fontSize=12;fontFamily=Helvetica;html=1;fillColor=#6d8764;fontColor=#ffffff;strokeColor=#3A5431;" parent="1" vertex="1"><mxGeometry x="205" y="70" width="135" height="20" as="geometry"/></mxCell></root></mxGraphModel></diagram></mxfile>